<?xml version="1.0" standalone="no"?>
<!DOCTYPE svg PUBLIC "-//W3C//DTD SVG 20010904//EN"
 "http://www.w3.org/TR/2001/REC-SVG-20010904/DTD/svg10.dtd">
<svg version="1.0" xmlns="http://www.w3.org/2000/svg"
 width="1024.000000pt" height="1024.000000pt" viewBox="0 0 1024.000000 1024.000000"
 preserveAspectRatio="xMidYMid meet">

<g transform="translate(0.000000,1024.000000) scale(0.100000,-0.100000)"
fill="#2563eb" stroke="none">
<path d="M5080 7561 c-14 -5 -122 -56 -241 -114 -293 -144 -305 -148 -421
-152 -157 -5 -347 -66 -491 -158 -274 -173 -307 -198 -402 -289 -102 -98 -123
-124 -268 -329 -81 -115 -122 -190 -173 -324 -15 -38 -43 -93 -61 -122 -44
-65 -52 -103 -53 -228 0 -54 -5 -195 -11 -313 -12 -237 -1 -550 26 -727 9 -55
18 -118 21 -140 l6 -40 -265 3 -265 3 -34 -30 -33 -29 1 -386 c0 -371 1 -387
20 -414 11 -15 36 -35 55 -45 31 -16 77 -17 609 -16 l575 1 22 -35 c35 -56
230 -248 319 -315 97 -72 209 -136 361 -203 208 -92 453 -139 723 -139 185 0
295 12 467 50 255 57 443 133 623 252 102 67 384 333 394 371 l5 22 556 0 557
0 28 31 28 32 -4 398 -5 399 -30 28 -30 28 -240 -3 -241 -3 5 25 c3 14 12 57
20 95 34 149 39 277 32 760 -4 259 -12 481 -17 495 -5 14 -27 52 -48 85 -21
33 -51 94 -66 135 -38 107 -76 178 -164 310 -100 149 -144 205 -254 318 -99
103 -225 202 -356 282 -122 75 -167 96 -309 147 -199 71 -264 91 -319 98 -44
5 -52 3 -62 -15 -8 -15 -8 -20 2 -20 7 0 18 -8 25 -18 6 -10 82 -51 169 -92
184 -84 316 -158 464 -258 155 -104 199 -144 310 -282 56 -69 129 -159 162
-200 60 -73 121 -185 133 -245 4 -17 3 -25 -2 -20 -33 43 -193 178 -283 241
l-110 76 0 49 c0 27 -6 64 -14 82 -15 37 -78 95 -146 134 -25 14 -81 52 -125
83 -44 32 -120 81 -170 110 -129 75 -326 213 -445 311 -55 45 -211 136 -345
201 -102 49 -169 64 -215 49z m91 -178 c1 -19 3 -22 6 -10 4 16 7 17 21 4 17
-15 124 -73 247 -135 39 -19 73 -39 76 -44 5 -8 5 -1660 0 -2438 l-1 -125 -60
3 c-51 3 -60 7 -60 23 0 10 5 19 10 19 6 0 10 9 10 20 0 11 4 20 9 20 21 0 44
98 50 211 3 64 3 115 0 113 -9 -5 -16 180 -9 237 4 31 2 50 -4 54 -8 3 -7 7 0
10 8 4 9 18 3 42 -4 20 -6 41 -3 45 3 4 0 8 -7 8 -9 0 -10 28 -5 113 4 62 3
116 -1 120 -15 15 -11 36 5 31 15 -5 15 -4 1 5 -9 6 -16 25 -17 43 -1 24 2 28
9 18 11 -17 9 -4 -11 90 -7 30 -10 85 -8 123 2 54 0 67 -12 67 -12 1 -12 2 2
10 19 12 17 42 -3 48 -11 3 -12 2 -1 -6 11 -7 10 -11 -4 -16 -9 -3 -19 -4 -22
-1 -3 3 1 5 8 5 7 0 10 3 7 7 -4 3 0 15 10 25 9 10 13 21 9 25 -4 4 -11 1 -16
-7 -6 -9 -10 -10 -10 -3 0 7 8 17 18 22 16 10 16 10 0 11 -10 0 -18 5 -18 10
0 6 7 10 15 10 8 0 15 5 15 10 0 6 -8 10 -17 10 -15 0 -16 2 -3 10 13 9 13 10
0 10 -12 0 -13 2 -1 9 10 7 11 18 3 57 -7 30 -7 53 -2 58 6 6 5 15 -1 23 -7 7
-8 13 -3 13 5 0 2 5 -6 10 -13 9 -13 10 0 10 9 1 5 6 -10 15 -19 11 -21 14 -7
15 13 0 17 8 17 35 0 19 -5 35 -11 35 -8 0 -7 6 2 18 11 14 11 15 -1 5 -23
-21 -35 -15 -14 8 10 11 14 20 9 19 -22 -5 -29 1 -15 10 11 8 12 12 3 18 -8 5
-9 13 -3 22 12 19 13 33 1 25 -6 -3 -6 6 -1 24 4 16 6 32 2 35 -3 4 3 13 14
22 19 15 19 15 -1 5 -14 -6 -28 -5 -45 5 -14 7 -22 13 -18 14 3 0 15 3 25 6
15 5 15 4 3 -5 -18 -13 -1 -15 18 -2 11 7 11 9 -2 14 -9 4 -23 4 -31 1 -8 -4
-15 -1 -15 5 0 6 8 11 19 11 10 0 24 7 31 15 10 12 6 13 -26 8 l-37 -6 5 44
c3 24 3 38 1 30 -4 -9 -7 -10 -13 -2 -4 7 -7 -5 -8 -25 -1 -20 -4 -40 -8 -43
-4 -3 -5 9 -2 27 4 29 2 32 -21 33 l-26 2 25 5 25 5 -25 8 c-21 7 -18 8 11 5
52 -5 62 4 54 48 -4 20 -11 36 -16 36 -5 0 -9 9 -9 20 0 11 4 20 9 20 5 0 11
11 13 25 3 13 1 22 -4 19 -4 -3 -15 10 -23 30 -20 46 -19 54 3 28 17 -20 18
-19 20 26 2 48 -11 83 -25 69 -4 -5 -1 -12 7 -17 8 -5 11 -12 7 -17 -11 -11
-27 17 -27 50 0 15 -4 27 -10 27 -5 0 -10 9 -10 20 0 17 -7 20 -39 20 -37 0
-40 2 -44 33 -2 17 -5 -8 -7 -58 -1 -49 -1 -94 0 -100 1 -5 2 -36 1 -67 -1
-32 2 -58 6 -58 5 0 9 21 10 46 2 26 5 49 8 52 2 3 4 -24 2 -60 -1 -48 -5 -64
-14 -61 -7 3 -13 4 -14 2 0 -2 -3 -539 -6 -1194 -3 -654 -6 -1191 -7 -1192 0
0 -93 1 -206 4 l-205 6 0 1297 0 1297 185 92 c200 99 239 109 241 64z m-601
-118 c0 -5 -26 -22 -362 -246 -136 -90 -277 -182 -313 -204 -37 -22 -92 -63
-121 -90 l-54 -51 0 -77 0 -77 -36 -15 c-19 -8 -72 -40 -116 -72 -84 -59 -288
-184 -288 -177 0 10 43 88 77 142 83 130 317 375 442 462 36 25 111 80 167
122 57 43 118 86 136 96 90 50 139 74 203 97 39 14 79 32 90 39 25 15 102 43
135 49 14 2 28 5 33 6 4 0 7 -1 7 -4z m25 -497 c-10 -612 -14 -1009 -15 -1570
l0 -558 -59 0 c-54 0 -59 2 -54 20 3 11 14 20 24 20 12 0 19 7 19 20 0 11 4
20 9 20 13 0 23 130 11 145 -8 10 -8 15 1 21 17 10 4 784 -14 796 -8 5 -8 8 0
8 7 0 9 14 6 42 -5 31 -3 39 6 33 10 -6 11 -3 1 15 -8 15 -8 20 -1 16 11 -7
16 16 6 26 -3 3 -7 70 -10 149 -2 79 -7 162 -10 184 -2 22 -7 62 -9 88 -2 26
-11 56 -20 66 -9 10 -16 26 -16 36 0 14 3 15 15 5 13 -11 15 -4 15 51 0 45 3
60 10 49 9 -13 10 -13 10 0 0 8 -4 22 -10 30 -7 11 -11 8 -20 -15 -10 -27 -13
-28 -24 -13 -7 10 -16 15 -19 11 -4 -3 -7 -1 -7 5 0 18 18 14 29 -5 9 -16 10
-16 11 3 0 16 -8 23 -31 28 -29 6 -33 26 -4 26 9 0 6 9 -10 26 -20 21 -30 25
-54 19 -35 -7 -35 -8 -20 -38 10 -22 10 -22 -6 -2 -14 17 -17 18 -26 5 -8 -12
-9 -9 -5 10 3 14 3 19 0 13 -3 -7 -12 -13 -20 -13 -8 0 -14 -5 -14 -11 0 -5
-4 -8 -8 -5 -4 2 -8 -3 -9 -12 -1 -9 -5 -435 -9 -947 -3 -511 -7 -931 -8 -932
-1 -1 -91 -3 -201 -6 l-200 -5 -3 917 c-2 504 0 952 4 996 l6 80 62 39 c33 22
138 86 231 143 168 103 269 172 375 258 30 24 59 44 63 44 4 1 5 -149 2 -331z
m682 266 c-3 -3 -12 -4 -19 -1 -8 3 -5 6 6 6 11 1 17 -2 13 -5z m-9 -21 c-10
-2 -26 -2 -35 0 -10 3 -2 5 17 5 19 0 27 -2 18 -5z m435 -65 c3 -25 1 -61 -3
-80 -6 -25 -8 -13 -9 51 -1 91 4 104 12 29z m-506 -10 c-3 -8 -6 -5 -6 6 -1
11 2 17 5 13 3 -3 4 -12 1 -19z m494 -355 c-8 -14 -10 -7 -11 32 0 28 4 61 8
75 5 19 8 11 10 -32 2 -32 -2 -66 -7 -75z m-348 70 c-17 -3 -23 -12 -24 -31
-1 -18 -3 -21 -6 -9 -7 29 4 47 29 46 l23 -2 -22 -4z m3 -85 c-4 -21 -3 -28 3
-19 5 7 11 9 14 5 3 -5 -1 -14 -8 -21 -10 -10 -14 -9 -19 3 -10 26 -7 64 5 64
8 0 9 -11 5 -32z m-920 -46 c-4 -3 -11 0 -16 8 -15 24 -11 33 6 15 9 -9 13
-19 10 -23z m938 -47 c-9 -13 -13 -29 -9 -34 3 -6 0 -8 -8 -5 -12 4 -11 10 2
38 9 19 19 32 23 29 4 -2 1 -15 -8 -28z m-897 -51 c-3 -3 -12 -4 -19 -1 -8 3
-5 6 6 6 11 1 17 -2 13 -5z m2208 -181 c17 -12 25 -23 18 -23 -6 0 -15 5 -18
10 -3 6 -11 10 -16 10 -6 0 -7 -5 -4 -10 3 -6 -1 -13 -10 -17 -10 -3 -21 0
-25 8 -5 7 -12 10 -16 6 -4 -4 1 -14 12 -23 18 -15 18 -15 -4 -9 -24 7 -56
-11 -46 -26 3 -5 1 -9 -5 -9 -7 0 -12 -64 -14 -177 -2 -139 -3 -118 -5 95 l-2
272 53 -42 c28 -24 66 -53 82 -65z m-2959 -170 c-4 -147 -9 -270 -12 -272 -4
-4 -9 88 -6 122 1 11 -5 17 -18 17 -11 0 -20 4 -20 10 0 5 7 7 15 4 11 -5 15
1 15 20 0 21 -7 29 -30 37 -35 13 -35 12 -14 47 9 15 10 20 3 11 -24 -27 -78
-11 -79 24 0 16 17 6 27 -15 9 -20 10 -19 10 10 0 21 -3 28 -9 20 -5 -9 -8 -7
-8 8 0 12 7 24 15 28 27 10 16 26 -17 26 -24 0 -29 3 -19 9 12 8 9 11 -11 16
-18 5 -25 12 -21 22 6 14 159 121 177 122 5 1 6 -110 2 -266z m-251 -667 l2
-773 -96 -7 c-175 -11 -200 -9 -206 17 -32 138 -37 228 -42 714 -3 276 -2 531
1 566 7 61 10 66 36 76 31 10 185 106 253 157 23 18 44 30 46 28 2 -2 5 -352
6 -778z m91 749 c3 -14 10 -25 15 -25 5 0 6 -7 3 -15 -4 -11 -19 -15 -53 -13
l-46 1 45 7 45 7 -41 1 c-33 2 -43 6 -47 23 -5 18 -2 20 19 16 16 -3 28 1 31
9 8 22 22 16 29 -11z m3358 -79 c22 -17 72 -47 110 -67 l71 -36 3 -369 c3
-322 -4 -661 -13 -652 -2 2 -5 21 -6 43 -4 41 -13 56 -39 68 -8 4 -2 5 13 2
26 -5 27 -4 17 15 -6 11 -15 20 -20 20 -5 0 -12 9 -15 21 -4 13 -12 18 -22 15
-10 -4 -9 1 5 22 11 15 17 33 14 41 -2 8 0 11 5 8 5 -3 9 3 9 13 0 10 -7 17
-16 15 -8 -1 -15 -11 -15 -23 0 -43 -12 -30 -14 15 -1 26 -5 51 -10 56 -5 5
-6 -16 -4 -46 4 -50 2 -55 -19 -60 -19 -5 -20 -4 -8 6 21 17 16 117 -6 117 -9
0 -12 5 -8 12 4 6 3 8 -4 4 -6 -3 -13 2 -15 11 -4 14 -5 13 -6 -4 0 -12 -7
-26 -13 -30 -7 -4 -13 -15 -13 -23 0 -9 -7 -14 -17 -12 -20 3 -21 1 -12 -22 5
-13 10 -14 20 -5 10 8 13 6 11 -9 0 -11 -6 -18 -12 -15 -8 2 -10 -7 -7 -27 4
-29 3 -31 -24 -25 -25 5 -26 4 -8 -4 12 -5 26 -16 30 -23 6 -10 4 -10 -9 1
-13 11 -20 11 -32 1 -8 -6 -19 -9 -25 -5 -5 3 -10 2 -10 -3 0 -5 15 -13 33
-18 l32 -8 -33 -3 c-19 -3 -37 -1 -40 2 -4 4 -8 247 -10 542 l-3 535 48 -33
c26 -18 66 -46 87 -63z m-3314 80 c0 -2 -7 -6 -15 -10 -8 -3 -15 -1 -15 4 0 6
7 10 15 10 8 0 15 -2 15 -4z m-45 -76 c-3 -5 -12 -7 -20 -3 -21 7 -19 13 6 13
11 0 18 -4 14 -10z m-31 -16 c27 -10 18 -21 -14 -16 -16 2 -30 8 -30 13 0 10
21 12 44 3z m-5 -46 c11 -27 0 -42 -25 -35 -16 4 -15 5 3 6 16 1 21 6 17 16
-4 8 -12 15 -20 15 -8 0 -14 5 -14 10 0 19 31 10 39 -12z m61 18 c0 -3 -4 -8
-10 -11 -5 -3 -10 -1 -10 4 0 6 5 11 10 11 6 0 10 -2 10 -4z m37 -3 c-4 -3 1
-12 11 -20 9 -8 11 -12 5 -8 -7 3 -13 1 -13 -4 0 -6 -5 -11 -11 -11 -6 0 -9 7
-5 15 3 8 0 15 -7 15 -8 0 -6 4 3 10 17 11 26 13 17 3z m93 -308 c0 -8 -4 -15
-10 -15 -5 0 -7 7 -4 15 4 8 8 15 10 15 2 0 4 -7 4 -15z m1717 -291 c-3 -3
-12 -4 -19 -1 -8 3 -5 6 6 6 11 1 17 -2 13 -5z m1523 -159 c14 -26 9 -42 -10
-30 -6 4 -9 13 -6 21 3 8 1 14 -4 14 -6 0 -10 -5 -10 -12 0 -6 -2 -9 -5 -6 -7
7 5 38 14 38 4 0 14 -11 21 -25z m-11 -77 c-1 -18 -2 -19 -6 -5 -2 9 -9 14
-15 11 -7 -4 -8 -2 -4 4 12 20 26 13 25 -10z m65 -87 c-2 -3 -12 3 -22 13 -16
17 -16 18 5 5 12 -7 20 -15 17 -18z m-207 -63 c-3 -7 -5 -2 -5 12 0 14 2 19 5
13 2 -7 2 -19 0 -25z m203 16 c0 -8 -19 -13 -24 -6 -3 5 1 9 9 9 8 0 15 -2 15
-3z m90 -154 c0 -5 -4 -10 -10 -10 -5 0 -10 5 -10 10 0 6 5 10 10 10 6 0 10
-4 10 -10z m-10 -99 c0 -31 -5 -51 -13 -54 -10 -4 -12 4 -10 27 11 86 23 102
23 27z m-283 -43 c-3 -7 -5 -2 -5 12 0 14 2 19 5 13 2 -7 2 -19 0 -25z m29
-64 c-3 -7 -1 -16 5 -19 5 -4 7 -11 4 -16 -4 -5 -1 -9 4 -9 6 0 11 6 11 13 0
8 4 7 10 -3 17 -26 11 -30 -35 -30 l-45 0 0 39 c0 35 3 39 26 39 17 0 24 -5
20 -14z m-279 -46 c-3 -8 -6 -5 -6 6 -1 11 2 17 5 13 3 -3 4 -12 1 -19z m-501
-268 c13 -36 30 -90 38 -120 8 -30 32 -125 55 -210 22 -85 41 -158 41 -162 0
-5 -20 -8 -45 -8 -47 0 -48 1 -57 65 -3 18 -12 20 -76 23 -69 3 -72 2 -72 -20
0 -58 -9 -68 -62 -68 -42 0 -49 3 -44 18 2 9 10 43 16 76 7 32 21 84 31 114
11 31 29 97 41 146 27 116 72 219 94 214 10 -2 26 -29 40 -68z m277 -5 c27
-38 67 -106 90 -150 l42 -80 5 145 5 145 45 3 45 3 3 -260 c2 -143 1 -269 -3
-281 -10 -32 -50 -26 -79 13 -14 18 -49 83 -79 145 -30 62 -58 112 -62 110 -4
-2 -6 -67 -6 -145 l2 -143 -51 0 -52 0 4 285 c3 279 3 286 23 283 12 -2 40
-32 68 -73z m828 54 c33 -62 149 -478 149 -535 0 -10 -13 -14 -44 -14 l-45 0
-7 45 -6 45 -67 0 -67 0 -10 -42 -9 -43 -52 -3 -53 -3 7 33 c8 42 26 106 51
183 11 33 32 98 45 145 38 128 71 210 84 210 7 0 17 -9 24 -21z m-4525 1 l35
0 -3 -231 -3 -231 83 4 82 4 0 -37 c0 -69 -1 -69 -119 -69 -58 0 -116 3 -128
6 l-23 6 0 272 c0 150 3 276 7 280 4 3 13 4 21 1 7 -3 29 -5 48 -5z m447 -57
c15 -38 38 -106 51 -153 33 -117 86 -321 86 -331 0 -5 -22 -9 -49 -9 l-49 0
-7 48 -6 47 -69 -3 c-66 -3 -69 -5 -79 -34 -6 -17 -11 -39 -11 -49 0 -16 -8
-19 -45 -19 -50 0 -52 5 -36 69 5 20 15 63 22 96 14 73 83 298 109 360 29 67
51 61 83 -22z m287 -16 c0 -95 10 -109 43 -66 31 43 67 113 67 134 0 12 12 15
55 15 64 0 69 -11 29 -59 -14 -17 -30 -47 -35 -66 -6 -19 -26 -51 -45 -70 -18
-19 -34 -39 -34 -45 0 -6 33 -77 73 -158 39 -80 74 -150 75 -154 2 -4 -21 -8
-51 -8 l-55 0 -48 110 c-27 60 -52 110 -56 110 -14 0 -28 -76 -28 -147 l0 -73
-47 0 -48 0 3 277 3 278 49 -3 50 -4 0 -71z m470 59 c19 -13 45 -42 58 -64 22
-40 22 -41 3 -51 -11 -6 -35 -11 -55 -11 -26 0 -36 5 -41 20 -8 25 -56 27 -80
4 -19 -20 -20 -19 97 -140 88 -91 88 -92 88 -143 0 -62 -17 -98 -61 -130 -73
-54 -168 -32 -209 48 -28 55 -26 77 7 86 22 5 32 0 63 -36 31 -36 40 -41 63
-35 15 3 34 17 43 30 14 22 14 27 0 55 -9 17 -47 55 -85 86 -81 65 -118 115
-127 172 -6 38 -4 43 22 59 16 10 39 26 50 36 47 41 116 47 164 14z m716 7 c4
-10 18 -47 31 -83 14 -35 38 -116 54 -180 16 -63 38 -144 49 -180 30 -98 29
-102 -27 -98 -46 3 -48 4 -59 43 l-11 40 -69 0 -69 0 -3 -30 c-2 -16 -8 -36
-14 -42 -14 -18 -77 -17 -84 1 -3 8 4 50 17 93 12 43 30 116 40 163 18 78 80
248 102 278 14 18 37 15 43 -5z m433 8 c12 -8 12 -14 -2 -43 -8 -18 -19 -46
-23 -63 -4 -16 -22 -67 -40 -112 -33 -79 -34 -87 -34 -214 0 -115 -2 -130 -16
-125 -9 3 -29 6 -45 6 l-29 0 0 108 c-1 82 -5 120 -21 162 -11 30 -33 93 -49
139 -17 46 -37 95 -45 107 -8 13 -15 26 -15 29 0 3 24 5 54 5 l54 0 22 -67
c12 -38 28 -83 34 -102 l13 -33 17 48 c10 27 27 75 38 107 17 50 23 57 46 57
15 0 33 -4 41 -9z m374 -5 c8 8 47 -5 47 -16 0 -18 -104 -169 -112 -164 -5 3
-5 11 0 17 11 14 33 100 27 105 -4 5 -47 -74 -56 -104 -5 -16 -2 -21 10 -20 9
0 16 -6 16 -14 0 -8 -5 -14 -12 -13 -8 2 -10 -4 -6 -15 6 -15 5 -16 -13 -2
-17 14 -18 14 -6 -1 7 -9 9 -24 6 -33 -4 -12 4 -28 24 -49 42 -45 126 -193
118 -212 -3 -10 -19 -15 -45 -15 -38 0 -40 1 -69 63 -16 34 -25 64 -21 67 4 3
1 16 -6 30 -13 22 -14 23 -15 5 0 -14 -7 -7 -20 20 -10 22 -16 50 -13 63 5 21
3 22 -22 12 -15 -6 -35 -20 -46 -33 -28 -34 -99 -174 -99 -197 0 -12 -7 -20
-16 -20 -9 0 -14 3 -12 8 2 4 21 43 42 86 20 44 50 96 67 117 16 20 29 43 29
49 0 7 -14 43 -31 79 -17 36 -32 76 -33 88 0 11 -4 19 -8 16 -18 -10 -6 14 12
27 11 8 20 21 20 30 1 8 14 -10 30 -40 42 -78 64 -104 84 -97 9 4 35 45 58 92
30 63 44 83 53 75 6 -5 14 -7 18 -4z m1483 -12 c58 -40 90 -89 72 -111 -17
-22 -65 -15 -92 12 -17 17 -36 25 -61 25 -33 0 -35 -2 -35 -33 0 -35 24 -63
124 -142 74 -59 95 -132 58 -205 -49 -97 -189 -109 -252 -20 -12 16 -24 45
-27 64 -5 30 -2 34 22 40 39 10 62 -1 74 -34 20 -58 101 -48 101 13 0 43 -8
52 -86 111 -131 98 -150 202 -52 280 45 35 102 35 154 0z m623 -204 l-4 -230
65 0 c101 0 110 -5 110 -56 l0 -43 -131 -3 c-72 -2 -133 -1 -135 1 -2 2 -4
130 -4 283 l0 278 51 0 51 0 -3 -230z m-3399 110 l0 -110 65 0 65 0 0 111 0
110 47 -3 47 -3 4 -271 4 -271 -42 -7 c-22 -3 -45 -4 -51 -1 -5 4 -9 57 -9
120 l0 113 -37 3 c-21 2 -50 3 -65 1 l-28 -3 0 -92 c0 -128 -4 -137 -50 -137
l-38 0 -7 105 c-4 58 -4 182 0 275 l8 170 43 0 44 0 0 -110z m1650 88 c55 -38
74 -71 74 -132 1 -42 -4 -62 -22 -86 l-24 -32 20 -21 c53 -56 48 -160 -9 -217
-36 -36 -47 -38 -165 -42 l-92 -3 -6 59 c-8 76 -8 241 1 384 l6 112 92 0 c79
0 97 -3 125 -22z m-590 -457 c-5 -11 -15 -23 -22 -27 -7 -5 -8 -2 -3 7 21 37
44 55 25 20z m1217 -258 c11 -33 -78 -145 -162 -202 -177 -121 -368 -198 -630
-254 -150 -31 -151 -31 -450 -31 l-300 0 -136 36 c-154 40 -269 87 -407 165
-122 69 -144 85 -221 158 -50 47 -101 117 -101 137 0 2 541 3 1202 3 922 0
1202 -3 1205 -12z"/>
<path d="M5342 6900 c0 -14 2 -19 5 -12 2 6 2 18 0 25 -3 6 -5 1 -5 -13z"/>
<path d="M5370 6896 c7 -7 13 -7 20 0 6 6 3 10 -10 10 -13 0 -16 -4 -10 -10z"/>
<path d="M5386 6624 c-9 -24 -2 -26 12 -4 7 11 8 20 3 20 -5 0 -12 -7 -15 -16z"/>
<path d="M4393 6608 c-2 -15 1 -18 6 -10 5 8 15 10 27 5 18 -6 18 -6 2 10 -23
23 -33 21 -35 -5z"/>
<path d="M4435 6570 c3 -5 8 -10 11 -10 2 0 4 5 4 10 0 6 -5 10 -11 10 -5 0
-7 -4 -4 -10z"/>
<path d="M4448 6503 c6 -2 18 -2 25 0 6 3 1 5 -13 5 -14 0 -19 -2 -12 -5z"/>
<path d="M4505 6331 c-3 -5 -1 -12 5 -16 5 -3 10 1 10 9 0 18 -6 21 -15 7z"/>
<path d="M6948 5357 c7 -8 8 -18 4 -22 -4 -5 -1 -5 6 -1 17 10 15 23 -4 30
-13 5 -14 4 -6 -7z"/>
<path d="M6884 5340 c0 -9 5 -17 11 -17 6 0 11 8 11 17 0 9 -5 17 -11 17 -6 0
-11 -8 -11 -17z"/>
<path d="M6981 5328 c-1 -16 4 -28 11 -28 6 0 8 3 5 7 -4 3 -1 13 6 21 8 11 8
14 0 9 -6 -4 -14 -1 -16 5 -3 7 -6 1 -6 -14z"/>
<path d="M7034 5144 c3 -9 6 -18 6 -20 0 -3 5 -2 10 1 16 10 12 35 -6 35 -11
0 -14 -5 -10 -16z"/>
<path d="M5985 4128 c-8 -28 -13 -53 -11 -55 2 -2 22 -3 44 -1 l40 3 -25 53
c-13 28 -26 52 -28 52 -2 0 -11 -23 -20 -52z"/>
<path d="M7137 4190 c-8 -21 -37 -113 -37 -117 0 -2 18 -3 40 -3 45 0 46 4 26
57 -8 21 -17 47 -19 58 -3 15 -5 17 -10 5z"/>
<path d="M3006 4156 c-10 -42 -17 -78 -15 -80 10 -8 89 -13 89 -5 0 4 -10 32
-21 61 -12 29 -24 64 -28 77 -6 20 -11 9 -25 -53z"/>
<path d="M4492 4188 c-6 -29 -14 -68 -17 -85 l-7 -33 46 0 c25 0 46 2 46 4 0
9 -51 166 -54 166 -1 0 -8 -24 -14 -52z"/>
<path d="M5570 4303 c0 -81 7 -93 50 -93 45 0 70 24 70 67 0 38 -24 59 -77 68
l-43 7 0 -49z"/>
<path d="M5579 4116 c-2 -2 -2 -32 -1 -66 l4 -61 56 3 57 3 3 44 c4 58 -17 81
-73 81 -23 0 -44 -2 -46 -4z"/>
<path d="M7555 5354 c-9 -9 -15 -28 -13 -43 2 -21 10 -28 40 -35 27 -7 41 -6
52 4 19 15 21 61 4 78 -17 17 -64 15 -83 -4z"/>
<path d="M2605 5336 c-19 -29 -10 -54 21 -62 57 -14 98 22 74 66 -16 30 -75
28 -95 -4z"/>
</g>
</svg>
